<svg width="1600" height="400" viewBox="0 0 1600 400" fill="none" xmlns="http://www.w3.org/2000/svg">
<path d="M400.001 400V200H200.001V400H400.001Z" fill="#1E1E1E"/>
<path d="M300.001 250C272.386 250 250.001 272.386 250.001 300C250.001 327.614 272.386 350 300.001 350C327.615 350 350.001 327.614 350.001 300C350.001 272.386 327.615 250 300.001 250Z" fill="white"/>
<path d="M300.001 350C272.386 350 250.001 327.614 250.001 300H350.001C350.001 327.614 327.615 350 300.001 350Z" fill="#DDDDDC"/>
<path d="M200.001 200H400.001L400 0H200L200.001 200Z" fill="#1E1E1E"/>
<path d="M350 100C350 72.3858 327.614 50 300 50C272.386 50 250 72.3858 250 100C250 127.614 272.386 150 300 150C327.614 150 350 127.614 350 100Z" fill="#7C7C7C"/>
<path d="M350 100C350 72.3858 327.614 50 300 50V150C327.614 150 350 127.614 350 100Z" fill="#DDDDDC"/>
<path d="M300 64.6447L264.645 100L300 135.355V64.6447Z" fill="#1E1E1E"/>
<path d="M0.000240326 200H200.001L200 0H0.000240326V200Z" fill="#7C7C7C"/>
<path d="M150 100C150 72.3858 127.614 50 100 50C72.386 50 50.0002 72.3858 50.0002 100C50.0002 127.614 72.386 150 100 150C127.614 150 150 127.614 150 100Z" fill="#7C7C7C"/>
<path d="M0.000240326 200H200.001V400H0L0.000240326 200Z" fill="white"/>
<path d="M150 300C150 327.614 127.614 350 100 350C72.3858 350 50 327.614 50 300C50 272.386 72.3858 250 100 250C127.614 250 150 272.386 150 300Z" fill="#FF3D00"/>
<path d="M125 300C125 313.807 113.807 325 100 325C86.1929 325 75 313.807 75 300C75 286.193 86.1929 275 100 275C113.807 275 125 286.193 125 300Z" fill="#1E1E1E"/>
<path d="M1600 0V200H1400V0H1600Z" fill="white"/>
<path d="M1600 0V100H1400V0H1600Z" fill="#FF3D00"/>
<path d="M1600 0V100H1400V0H1600Z" fill="#FF3D00"/>
<path d="M1200 0V200H1400V0H1200Z" fill="#B7B7B7"/>
<path d="M1200 0C1200 26.2644 1205.17 52.2716 1215.22 76.5367C1225.28 100.802 1240.01 122.85 1258.58 141.421C1277.15 159.993 1299.2 174.725 1323.46 184.776C1347.73 194.827 1373.74 200 1400 200V0H1200Z" fill="#565656"/>
<path d="M1400 400V200H1600V400H1400Z" fill="#B7B7B7"/>
<path d="M1400 400C1400 373.736 1405.17 347.728 1415.22 323.463C1425.28 299.198 1440.01 277.15 1458.58 258.579C1477.15 240.007 1499.2 225.275 1523.46 215.224C1547.73 205.173 1573.74 200 1600 200V400H1400Z" fill="#565656"/>
<path d="M1400 400V200H1200V400H1400Z" fill="#B7B7B7"/>
<path d="M1381 384C1381 382.343 1382.34 381 1384 381C1385.66 381 1387 382.343 1387 384C1387 385.657 1385.66 387 1384 387C1382.34 387 1381 385.657 1381 384Z" fill="#1E1E1E"/>
<path d="M1360 384C1360 382.343 1361.34 381 1363 381C1364.66 381 1366 382.343 1366 384C1366 385.657 1364.66 387 1363 387C1361.34 387 1360 385.657 1360 384Z" fill="#1E1E1E"/>
<path d="M1339 384C1339 382.343 1340.34 381 1342 381C1343.66 381 1345 382.343 1345 384C1345 385.657 1343.66 387 1342 387C1340.34 387 1339 385.657 1339 384Z" fill="#1E1E1E"/>
<path d="M1318 384C1318 382.343 1319.34 381 1321 381C1322.66 381 1324 382.343 1324 384C1324 385.657 1322.66 387 1321 387C1319.34 387 1318 385.657 1318 384Z" fill="#1E1E1E"/>
<path d="M1297 384C1297 382.343 1298.34 381 1300 381C1301.66 381 1303 382.343 1303 384C1303 385.657 1301.66 387 1300 387C1298.34 387 1297 385.657 1297 384Z" fill="#1E1E1E"/>
<path d="M1276 384C1276 382.343 1277.34 381 1279 381C1280.66 381 1282 382.343 1282 384C1282 385.657 1280.66 387 1279 387C1277.34 387 1276 385.657 1276 384Z" fill="#1E1E1E"/>
<path d="M1255 384C1255 382.343 1256.34 381 1258 381C1259.66 381 1261 382.343 1261 384C1261 385.657 1259.66 387 1258 387C1256.34 387 1255 385.657 1255 384Z" fill="#1E1E1E"/>
<path d="M1234 384C1234 382.343 1235.34 381 1237 381C1238.66 381 1240 382.343 1240 384C1240 385.657 1238.66 387 1237 387C1235.34 387 1234 385.657 1234 384Z" fill="#1E1E1E"/>
<path d="M1213 384C1213 382.343 1214.34 381 1216 381C1217.66 381 1219 382.343 1219 384C1219 385.657 1217.66 387 1216 387C1214.34 387 1213 385.657 1213 384Z" fill="#1E1E1E"/>
<path d="M1381 363C1381 361.343 1382.34 360 1384 360C1385.66 360 1387 361.343 1387 363C1387 364.657 1385.66 366 1384 366C1382.34 366 1381 364.657 1381 363Z" fill="#1E1E1E"/>
<path d="M1360 363C1360 361.343 1361.34 360 1363 360C1364.66 360 1366 361.343 1366 363C1366 364.657 1364.66 366 1363 366C1361.34 366 1360 364.657 1360 363Z" fill="#1E1E1E"/>
<path d="M1339 363C1339 361.343 1340.34 360 1342 360C1343.66 360 1345 361.343 1345 363C1345 364.657 1343.66 366 1342 366C1340.34 366 1339 364.657 1339 363Z" fill="#1E1E1E"/>
<path d="M1318 363C1318 361.343 1319.34 360 1321 360C1322.66 360 1324 361.343 1324 363C1324 364.657 1322.66 366 1321 366C1319.34 366 1318 364.657 1318 363Z" fill="#1E1E1E"/>
<path d="M1297 363C1297 361.343 1298.34 360 1300 360C1301.66 360 1303 361.343 1303 363C1303 364.657 1301.66 366 1300 366C1298.34 366 1297 364.657 1297 363Z" fill="#1E1E1E"/>
<path d="M1276 363C1276 361.343 1277.34 360 1279 360C1280.66 360 1282 361.343 1282 363C1282 364.657 1280.66 366 1279 366C1277.34 366 1276 364.657 1276 363Z" fill="#1E1E1E"/>
<path d="M1255 363C1255 361.343 1256.34 360 1258 360C1259.66 360 1261 361.343 1261 363C1261 364.657 1259.66 366 1258 366C1256.34 366 1255 364.657 1255 363Z" fill="#1E1E1E"/>
<path d="M1234 363C1234 361.343 1235.34 360 1237 360C1238.66 360 1240 361.343 1240 363C1240 364.657 1238.66 366 1237 366C1235.34 366 1234 364.657 1234 363Z" fill="#1E1E1E"/>
<path d="M1213 363C1213 361.343 1214.34 360 1216 360C1217.66 360 1219 361.343 1219 363C1219 364.657 1217.66 366 1216 366C1214.34 366 1213 364.657 1213 363Z" fill="#1E1E1E"/>
<path d="M1381 342C1381 340.343 1382.34 339 1384 339C1385.66 339 1387 340.343 1387 342C1387 343.657 1385.66 345 1384 345C1382.34 345 1381 343.657 1381 342Z" fill="#1E1E1E"/>
<path d="M1360 342C1360 340.343 1361.34 339 1363 339C1364.66 339 1366 340.343 1366 342C1366 343.657 1364.66 345 1363 345C1361.34 345 1360 343.657 1360 342Z" fill="#1E1E1E"/>
<path d="M1339 342C1339 340.343 1340.34 339 1342 339C1343.66 339 1345 340.343 1345 342C1345 343.657 1343.66 345 1342 345C1340.34 345 1339 343.657 1339 342Z" fill="#1E1E1E"/>
<path d="M1318 342C1318 340.343 1319.34 339 1321 339C1322.66 339 1324 340.343 1324 342C1324 343.657 1322.66 345 1321 345C1319.34 345 1318 343.657 1318 342Z" fill="#1E1E1E"/>
<path d="M1297 342C1297 340.343 1298.34 339 1300 339C1301.66 339 1303 340.343 1303 342C1303 343.657 1301.66 345 1300 345C1298.34 345 1297 343.657 1297 342Z" fill="#1E1E1E"/>
<path d="M1276 342C1276 340.343 1277.34 339 1279 339C1280.66 339 1282 340.343 1282 342C1282 343.657 1280.66 345 1279 345C1277.34 345 1276 343.657 1276 342Z" fill="#1E1E1E"/>
<path d="M1255 342C1255 340.343 1256.34 339 1258 339C1259.66 339 1261 340.343 1261 342C1261 343.657 1259.66 345 1258 345C1256.34 345 1255 343.657 1255 342Z" fill="#1E1E1E"/>
<path d="M1234 342C1234 340.343 1235.34 339 1237 339C1238.66 339 1240 340.343 1240 342C1240 343.657 1238.66 345 1237 345C1235.34 345 1234 343.657 1234 342Z" fill="#1E1E1E"/>
<path d="M1213 342C1213 340.343 1214.34 339 1216 339C1217.66 339 1219 340.343 1219 342C1219 343.657 1217.66 345 1216 345C1214.34 345 1213 343.657 1213 342Z" fill="#1E1E1E"/>
<path d="M1381 321C1381 319.343 1382.34 318 1384 318C1385.66 318 1387 319.343 1387 321C1387 322.657 1385.66 324 1384 324C1382.34 324 1381 322.657 1381 321Z" fill="#1E1E1E"/>
<path d="M1360 321C1360 319.343 1361.34 318 1363 318C1364.66 318 1366 319.343 1366 321C1366 322.657 1364.66 324 1363 324C1361.34 324 1360 322.657 1360 321Z" fill="#1E1E1E"/>
<path d="M1339 321C1339 319.343 1340.34 318 1342 318C1343.66 318 1345 319.343 1345 321C1345 322.657 1343.66 324 1342 324C1340.34 324 1339 322.657 1339 321Z" fill="#1E1E1E"/>
<path d="M1318 321C1318 319.343 1319.34 318 1321 318C1322.66 318 1324 319.343 1324 321C1324 322.657 1322.66 324 1321 324C1319.34 324 1318 322.657 1318 321Z" fill="#1E1E1E"/>
<path d="M1297 321C1297 319.343 1298.34 318 1300 318C1301.66 318 1303 319.343 1303 321C1303 322.657 1301.66 324 1300 324C1298.34 324 1297 322.657 1297 321Z" fill="#1E1E1E"/>
<path d="M1276 321C1276 319.343 1277.34 318 1279 318C1280.66 318 1282 319.343 1282 321C1282 322.657 1280.66 324 1279 324C1277.34 324 1276 322.657 1276 321Z" fill="#1E1E1E"/>
<path d="M1255 321C1255 319.343 1256.34 318 1258 318C1259.66 318 1261 319.343 1261 321C1261 322.657 1259.66 324 1258 324C1256.34 324 1255 322.657 1255 321Z" fill="#1E1E1E"/>
<path d="M1234 321C1234 319.343 1235.34 318 1237 318C1238.66 318 1240 319.343 1240 321C1240 322.657 1238.66 324 1237 324C1235.34 324 1234 322.657 1234 321Z" fill="#1E1E1E"/>
<path d="M1213 321C1213 319.343 1214.34 318 1216 318C1217.66 318 1219 319.343 1219 321C1219 322.657 1217.66 324 1216 324C1214.34 324 1213 322.657 1213 321Z" fill="#1E1E1E"/>
<path d="M1381 300C1381 298.343 1382.34 297 1384 297C1385.66 297 1387 298.343 1387 300C1387 301.657 1385.66 303 1384 303C1382.34 303 1381 301.657 1381 300Z" fill="#1E1E1E"/>
<path d="M1360 300C1360 298.343 1361.34 297 1363 297C1364.66 297 1366 298.343 1366 300C1366 301.657 1364.66 303 1363 303C1361.34 303 1360 301.657 1360 300Z" fill="#1E1E1E"/>
<path d="M1339 300C1339 298.343 1340.34 297 1342 297C1343.66 297 1345 298.343 1345 300C1345 301.657 1343.66 303 1342 303C1340.34 303 1339 301.657 1339 300Z" fill="#1E1E1E"/>
<path d="M1318 300C1318 298.343 1319.34 297 1321 297C1322.66 297 1324 298.343 1324 300C1324 301.657 1322.66 303 1321 303C1319.34 303 1318 301.657 1318 300Z" fill="#1E1E1E"/>
<path d="M1297 300C1297 298.343 1298.34 297 1300 297C1301.66 297 1303 298.343 1303 300C1303 301.657 1301.66 303 1300 303C1298.34 303 1297 301.657 1297 300Z" fill="#1E1E1E"/>
<path d="M1276 300C1276 298.343 1277.34 297 1279 297C1280.66 297 1282 298.343 1282 300C1282 301.657 1280.66 303 1279 303C1277.34 303 1276 301.657 1276 300Z" fill="#1E1E1E"/>
<path d="M1255 300C1255 298.343 1256.34 297 1258 297C1259.66 297 1261 298.343 1261 300C1261 301.657 1259.66 303 1258 303C1256.34 303 1255 301.657 1255 300Z" fill="#1E1E1E"/>
<path d="M1234 300C1234 298.343 1235.34 297 1237 297C1238.66 297 1240 298.343 1240 300C1240 301.657 1238.66 303 1237 303C1235.34 303 1234 301.657 1234 300Z" fill="#1E1E1E"/>
<path d="M1213 300C1213 298.343 1214.34 297 1216 297C1217.66 297 1219 298.343 1219 300C1219 301.657 1217.66 303 1216 303C1214.34 303 1213 301.657 1213 300Z" fill="#1E1E1E"/>
<path d="M1381 279C1381 277.343 1382.34 276 1384 276C1385.66 276 1387 277.343 1387 279C1387 280.657 1385.66 282 1384 282C1382.34 282 1381 280.657 1381 279Z" fill="#1E1E1E"/>
<path d="M1360 279C1360 277.343 1361.34 276 1363 276C1364.66 276 1366 277.343 1366 279C1366 280.657 1364.66 282 1363 282C1361.34 282 1360 280.657 1360 279Z" fill="#1E1E1E"/>
<path d="M1339 279C1339 277.343 1340.34 276 1342 276C1343.66 276 1345 277.343 1345 279C1345 280.657 1343.66 282 1342 282C1340.34 282 1339 280.657 1339 279Z" fill="#1E1E1E"/>
<path d="M1318 279C1318 277.343 1319.34 276 1321 276C1322.66 276 1324 277.343 1324 279C1324 280.657 1322.66 282 1321 282C1319.34 282 1318 280.657 1318 279Z" fill="#1E1E1E"/>
<path d="M1297 279C1297 277.343 1298.34 276 1300 276C1301.66 276 1303 277.343 1303 279C1303 280.657 1301.66 282 1300 282C1298.34 282 1297 280.657 1297 279Z" fill="#1E1E1E"/>
<path d="M1276 279C1276 277.343 1277.34 276 1279 276C1280.66 276 1282 277.343 1282 279C1282 280.657 1280.66 282 1279 282C1277.34 282 1276 280.657 1276 279Z" fill="#1E1E1E"/>
<path d="M1255 279C1255 277.343 1256.34 276 1258 276C1259.66 276 1261 277.343 1261 279C1261 280.657 1259.66 282 1258 282C1256.34 282 1255 280.657 1255 279Z" fill="#1E1E1E"/>
<path d="M1234 279C1234 277.343 1235.34 276 1237 276C1238.66 276 1240 277.343 1240 279C1240 280.657 1238.66 282 1237 282C1235.34 282 1234 280.657 1234 279Z" fill="#1E1E1E"/>
<path d="M1213 279C1213 277.343 1214.34 276 1216 276C1217.66 276 1219 277.343 1219 279C1219 280.657 1217.66 282 1216 282C1214.34 282 1213 280.657 1213 279Z" fill="#1E1E1E"/>
<path d="M1381 258C1381 256.343 1382.34 255 1384 255C1385.66 255 1387 256.343 1387 258C1387 259.657 1385.66 261 1384 261C1382.34 261 1381 259.657 1381 258Z" fill="#1E1E1E"/>
<path d="M1360 258C1360 256.343 1361.34 255 1363 255C1364.66 255 1366 256.343 1366 258C1366 259.657 1364.66 261 1363 261C1361.34 261 1360 259.657 1360 258Z" fill="#1E1E1E"/>
<path d="M1339 258C1339 256.343 1340.34 255 1342 255C1343.66 255 1345 256.343 1345 258C1345 259.657 1343.66 261 1342 261C1340.34 261 1339 259.657 1339 258Z" fill="#1E1E1E"/>
<path d="M1318 258C1318 256.343 1319.34 255 1321 255C1322.66 255 1324 256.343 1324 258C1324 259.657 1322.66 261 1321 261C1319.34 261 1318 259.657 1318 258Z" fill="#1E1E1E"/>
<path d="M1297 258C1297 256.343 1298.34 255 1300 255C1301.66 255 1303 256.343 1303 258C1303 259.657 1301.66 261 1300 261C1298.34 261 1297 259.657 1297 258Z" fill="#1E1E1E"/>
<path d="M1276 258C1276 256.343 1277.34 255 1279 255C1280.66 255 1282 256.343 1282 258C1282 259.657 1280.66 261 1279 261C1277.34 261 1276 259.657 1276 258Z" fill="#1E1E1E"/>
<path d="M1255 258C1255 256.343 1256.34 255 1258 255C1259.66 255 1261 256.343 1261 258C1261 259.657 1259.66 261 1258 261C1256.34 261 1255 259.657 1255 258Z" fill="#1E1E1E"/>
<path d="M1234 258C1234 256.343 1235.34 255 1237 255C1238.66 255 1240 256.343 1240 258C1240 259.657 1238.66 261 1237 261C1235.34 261 1234 259.657 1234 258Z" fill="#1E1E1E"/>
<path d="M1213 258C1213 256.343 1214.34 255 1216 255C1217.66 255 1219 256.343 1219 258C1219 259.657 1217.66 261 1216 261C1214.34 261 1213 259.657 1213 258Z" fill="#1E1E1E"/>
<path d="M1381 237C1381 235.343 1382.34 234 1384 234C1385.66 234 1387 235.343 1387 237C1387 238.657 1385.66 240 1384 240C1382.34 240 1381 238.657 1381 237Z" fill="#1E1E1E"/>
<path d="M1360 237C1360 235.343 1361.34 234 1363 234C1364.66 234 1366 235.343 1366 237C1366 238.657 1364.66 240 1363 240C1361.34 240 1360 238.657 1360 237Z" fill="#1E1E1E"/>
<path d="M1339 237C1339 235.343 1340.34 234 1342 234C1343.66 234 1345 235.343 1345 237C1345 238.657 1343.66 240 1342 240C1340.34 240 1339 238.657 1339 237Z" fill="#1E1E1E"/>
<path d="M1318 237C1318 235.343 1319.34 234 1321 234C1322.66 234 1324 235.343 1324 237C1324 238.657 1322.66 240 1321 240C1319.34 240 1318 238.657 1318 237Z" fill="#1E1E1E"/>
<path d="M1297 237C1297 235.343 1298.34 234 1300 234C1301.66 234 1303 235.343 1303 237C1303 238.657 1301.66 240 1300 240C1298.34 240 1297 238.657 1297 237Z" fill="#1E1E1E"/>
<path d="M1276 237C1276 235.343 1277.34 234 1279 234C1280.66 234 1282 235.343 1282 237C1282 238.657 1280.66 240 1279 240C1277.34 240 1276 238.657 1276 237Z" fill="#1E1E1E"/>
<path d="M1255 237C1255 235.343 1256.34 234 1258 234C1259.66 234 1261 235.343 1261 237C1261 238.657 1259.66 240 1258 240C1256.34 240 1255 238.657 1255 237Z" fill="#1E1E1E"/>
<path d="M1234 237C1234 235.343 1235.34 234 1237 234C1238.66 234 1240 235.343 1240 237C1240 238.657 1238.66 240 1237 240C1235.34 240 1234 238.657 1234 237Z" fill="#1E1E1E"/>
<path d="M1213 237C1213 235.343 1214.34 234 1216 234C1217.66 234 1219 235.343 1219 237C1219 238.657 1217.66 240 1216 240C1214.34 240 1213 238.657 1213 237Z" fill="#1E1E1E"/>
<path d="M1381 216C1381 214.343 1382.34 213 1384 213C1385.66 213 1387 214.343 1387 216C1387 217.657 1385.66 219 1384 219C1382.34 219 1381 217.657 1381 216Z" fill="#1E1E1E"/>
<path d="M1360 216C1360 214.343 1361.34 213 1363 213C1364.66 213 1366 214.343 1366 216C1366 217.657 1364.66 219 1363 219C1361.34 219 1360 217.657 1360 216Z" fill="#1E1E1E"/>
<path d="M1339 216C1339 214.343 1340.34 213 1342 213C1343.66 213 1345 214.343 1345 216C1345 217.657 1343.66 219 1342 219C1340.34 219 1339 217.657 1339 216Z" fill="#1E1E1E"/>
<path d="M1318 216C1318 214.343 1319.34 213 1321 213C1322.66 213 1324 214.343 1324 216C1324 217.657 1322.66 219 1321 219C1319.34 219 1318 217.657 1318 216Z" fill="#1E1E1E"/>
<path d="M1297 216C1297 214.343 1298.34 213 1300 213C1301.66 213 1303 214.343 1303 216C1303 217.657 1301.66 219 1300 219C1298.34 219 1297 217.657 1297 216Z" fill="#1E1E1E"/>
<path d="M1276 216C1276 214.343 1277.34 213 1279 213C1280.66 213 1282 214.343 1282 216C1282 217.657 1280.66 219 1279 219C1277.34 219 1276 217.657 1276 216Z" fill="#1E1E1E"/>
<path d="M1255 216C1255 214.343 1256.34 213 1258 213C1259.66 213 1261 214.343 1261 216C1261 217.657 1259.66 219 1258 219C1256.34 219 1255 217.657 1255 216Z" fill="#1E1E1E"/>
<path d="M1234 216C1234 214.343 1235.34 213 1237 213C1238.66 213 1240 214.343 1240 216C1240 217.657 1238.66 219 1237 219C1235.34 219 1234 217.657 1234 216Z" fill="#1E1E1E"/>
<path d="M1213 216C1213 214.343 1214.34 213 1216 213C1217.66 213 1219 214.343 1219 216C1219 217.657 1217.66 219 1216 219C1214.34 219 1213 217.657 1213 216Z" fill="#1E1E1E"/>
<path d="M1000 0H800V200H1000V0Z" fill="#737373"/>
<path d="M1000 0C1000 26.2644 994.827 52.2716 984.776 76.5367C974.725 100.802 959.993 122.85 941.421 141.421C922.85 159.993 900.802 174.725 876.537 184.776C852.272 194.827 826.264 200 800 200V0H1000Z" fill="#FF3D00"/>
<path d="M1200 200H1000V0H1200V200Z" fill="#737373"/>
<path d="M1200 200H1000V100H1200V200Z" fill="#1D1F22"/>
<path d="M1100 0C1044.77 0 1000 44.7715 1000 100H1200C1200 44.7715 1155.23 0 1100 0Z" fill="#1D1F22"/>
<path d="M1000 200H800V400H1000V200Z" fill="#1D1F22"/>
<path d="M1000 200H800V300H1000V200Z" fill="#737373"/>
<path d="M900 400C844.772 400 800 355.228 800 300H1000C1000 355.228 955.228 400 900 400Z" fill="#737373"/>
<path d="M1200 400H1000V200H1200V400Z" fill="#1D1F22"/>
<path d="M1100 300C1044.77 300 1000 344.772 1000 400H1200C1200 344.772 1155.23 300 1100 300Z" fill="#DDDDDC"/>
<path d="M400.001 200L400 0H600V200H400.001Z" fill="#7B7B7B"/>
<path d="M400 100C455.228 100 500 55.2285 500 0H400L400 100Z" fill="#4F4F4F"/>
<path d="M600 100C544.772 100 500 55.2285 500 0H600V100Z" fill="#9E9E9E"/>
<path d="M400 100C455.228 100 500 144.772 500 200H400.001L400 100Z" fill="#4F4F4F"/>
<path d="M600 100C544.772 100 500 144.772 500 200H600V100Z" fill="#9E9E9E"/>
<path d="M800 200V0H600V200H800Z" fill="#7B7B7B"/>
<path d="M800 0C800 26.2644 794.827 52.2716 784.776 76.5367C774.725 100.802 759.993 122.85 741.421 141.421C722.85 159.993 700.802 174.725 676.537 184.776C652.272 194.827 626.264 200 600 200V0H800Z" fill="#1E1E1E"/>
<path d="M700 0C700 13.1322 697.413 26.1358 692.388 38.2683C687.362 50.4009 679.997 61.4248 670.711 70.7107C661.425 79.9965 650.401 87.3625 638.268 92.388C626.136 97.4134 613.132 100 600 100V0H700Z" fill="#9E9E9E"/>
<path d="M600 200H400.001V400H600V200Z" fill="#7B7B7B"/>
<path d="M600 300C600 355.228 555.228 400 500 400V200C555.228 200 600 244.772 600 300Z" fill="#4F4F4F"/>
<path d="M400 300C400 355.228 444.772 400 500 400V200C444.772 200 400 244.772 400 300Z" fill="#FF3D00"/>
<path d="M800 400V200H600V400H800Z" fill="#7B7B7B"/>
<path d="M600 400V375L625 400H600Z" fill="#1E1E1E"/>
<path d="M625 400V375L650 400H625Z" fill="#1E1E1E"/>
<path d="M650 400V375L675 400H650Z" fill="#1E1E1E"/>
<path d="M675 400V375L700 400H675Z" fill="#1E1E1E"/>
<path d="M700 400V375L725 400H700Z" fill="#1E1E1E"/>
<path d="M725 400V375L750 400H725Z" fill="#1E1E1E"/>
<path d="M750 400V375L775 400H750Z" fill="#1E1E1E"/>
<path d="M775 400V375L800 400H775Z" fill="#1E1E1E"/>
<path d="M600 375V350L625 375H600Z" fill="#1E1E1E"/>
<path d="M625 375V350L650 375H625Z" fill="#1E1E1E"/>
<path d="M650 375V350L675 375H650Z" fill="#1E1E1E"/>
<path d="M675 375V350L700 375H675Z" fill="#1E1E1E"/>
<path d="M700 375V350L725 375H700Z" fill="#1E1E1E"/>
<path d="M725 375V350L750 375H725Z" fill="#1E1E1E"/>
<path d="M750 375V350L775 375H750Z" fill="#1E1E1E"/>
<path d="M775 375V350L800 375H775Z" fill="#1E1E1E"/>
<path d="M600 350V325L625 350H600Z" fill="#1E1E1E"/>
<path d="M625 350V325L650 350H625Z" fill="#1E1E1E"/>
<path d="M650 350V325L675 350H650Z" fill="#1E1E1E"/>
<path d="M675 350V325L700 350H675Z" fill="#1E1E1E"/>
<path d="M700 350V325L725 350H700Z" fill="#1E1E1E"/>
<path d="M725 350V325L750 350H725Z" fill="#1E1E1E"/>
<path d="M750 350V325L775 350H750Z" fill="#1E1E1E"/>
<path d="M775 350V325L800 350H775Z" fill="#1E1E1E"/>
<path d="M600 325V300L625 325H600Z" fill="#1E1E1E"/>
<path d="M625 325V300L650 325H625Z" fill="#1E1E1E"/>
<path d="M650 325V300L675 325H650Z" fill="#1E1E1E"/>
<path d="M675 325V300L700 325H675Z" fill="#1E1E1E"/>
<path d="M700 325V300L725 325H700Z" fill="#1E1E1E"/>
<path d="M725 325V300L750 325H725Z" fill="#1E1E1E"/>
<path d="M750 325V300L775 325H750Z" fill="#1E1E1E"/>
<path d="M775 325V300L800 325H775Z" fill="#1E1E1E"/>
<path d="M600 300V275L625 300H600Z" fill="#1E1E1E"/>
<path d="M625 300V275L650 300H625Z" fill="#1E1E1E"/>
<path d="M650 300V275L675 300H650Z" fill="#1E1E1E"/>
<path d="M675 300V275L700 300H675Z" fill="#1E1E1E"/>
<path d="M700 300V275L725 300H700Z" fill="#1E1E1E"/>
<path d="M725 300V275L750 300H725Z" fill="#1E1E1E"/>
<path d="M750 300V275L775 300H750Z" fill="#1E1E1E"/>
<path d="M775 300V275L800 300H775Z" fill="#1E1E1E"/>
<path d="M600 275V250L625 275H600Z" fill="#1E1E1E"/>
<path d="M625 275V250L650 275H625Z" fill="#1E1E1E"/>
<path d="M650 275V250L675 275H650Z" fill="#1E1E1E"/>
<path d="M675 275V250L700 275H675Z" fill="#1E1E1E"/>
<path d="M700 275V250L725 275H700Z" fill="#1E1E1E"/>
<path d="M725 275V250L750 275H725Z" fill="#1E1E1E"/>
<path d="M750 275V250L775 275H750Z" fill="#1E1E1E"/>
<path d="M775 275V250L800 275H775Z" fill="#1E1E1E"/>
<path d="M600 250V225L625 250H600Z" fill="#1E1E1E"/>
<path d="M625 250V225L650 250H625Z" fill="#1E1E1E"/>
<path d="M650 250V225L675 250H650Z" fill="#1E1E1E"/>
<path d="M675 250V225L700 250H675Z" fill="#1E1E1E"/>
<path d="M700 250V225L725 250H700Z" fill="#1E1E1E"/>
<path d="M725 250V225L750 250H725Z" fill="#1E1E1E"/>
<path d="M750 250V225L775 250H750Z" fill="#1E1E1E"/>
<path d="M775 250V225L800 250H775Z" fill="#1E1E1E"/>
<path d="M600 225V200L625 225H600Z" fill="#1E1E1E"/>
<path d="M625 225V200L650 225H625Z" fill="#1E1E1E"/>
<path d="M650 225V200L675 225H650Z" fill="#1E1E1E"/>
<path d="M675 225V200L700 225H675Z" fill="#1E1E1E"/>
<path d="M700 225V200L725 225H700Z" fill="#1E1E1E"/>
<path d="M725 225V200L750 225H725Z" fill="#1E1E1E"/>
<path d="M750 225V200L775 225H750Z" fill="#1E1E1E"/>
<path d="M775 225V200L800 225H775Z" fill="#1E1E1E"/>
<path d="M433.64 226.06C434.08 204.5 461.727 192.62 516.58 190.42H519.66L522.96 190.2V189.1C522.96 179.86 514.087 175.24 496.34 175.24C492.087 175.24 488.273 175.607 484.9 176.34C481.673 176.927 479.253 177.733 477.64 178.76C476.027 179.64 474.707 180.593 473.68 181.62C472.8 182.5 472.213 183.307 471.92 184.04L471.7 184.92H439.36L440.9 179.2C445.74 167.173 456.593 159.18 473.46 155.22C480.353 153.607 488.053 152.8 496.56 152.8C515.187 152.8 529.56 156.1 539.68 162.7C549.8 169.3 554.86 178.173 554.86 189.32L555.08 215.72V220.56C555.08 223.347 555.52 225.253 556.4 226.28C557.28 227.307 558.747 227.82 560.8 227.82H563.66V254H560.8C550.24 254 542.247 252.973 536.82 250.92C531.54 248.867 527.873 245.2 525.82 239.92C515.7 250.773 499.493 256.2 477.2 256.2C461.947 256.2 450.873 253.413 443.98 247.84C437.087 242.267 433.64 235.153 433.64 226.5C433.64 226.353 433.64 226.207 433.64 226.06ZM467.74 226.06C467.74 231.047 472.8 233.687 482.92 233.98C483.507 233.98 484.167 233.98 484.9 233.98C493.407 233.98 501.84 232.073 510.2 228.26C518.56 224.447 522.813 219.167 522.96 212.42V208.68C516.653 208.827 510.86 209.193 505.58 209.78C500.3 210.22 494.433 211.027 487.98 212.2C481.673 213.373 476.687 215.133 473.02 217.48C469.5 219.68 467.74 222.393 467.74 225.62C467.74 225.767 467.74 225.913 467.74 226.06Z" fill="white"/>
<path d="M605.68 155V169.96C613.747 158.667 626.14 152.947 642.86 152.8C643.593 152.8 644.327 152.8 645.06 152.8C667.06 152.8 681.653 159.547 688.84 173.04C697.933 159.987 711.867 153.24 730.64 152.8C731.227 152.8 731.813 152.8 732.4 152.8C741.787 152.8 749.853 153.973 756.6 156.32C763.493 158.52 768.773 162.04 772.44 166.88C776.107 171.573 778.673 176.707 780.14 182.28C781.753 187.853 782.56 194.38 782.56 201.86V254H749.78V201.86C749.78 194.233 747.727 188.147 743.62 183.6C739.66 179.053 733.867 176.78 726.24 176.78C725.947 176.78 725.653 176.78 725.36 176.78C713.773 176.78 705.78 179.64 701.38 185.36C696.98 191.08 694.78 199.293 694.78 210V254H662.22V201.86C662.22 194.233 660.167 188.147 656.06 183.6C651.953 179.053 646.16 176.78 638.68 176.78C638.387 176.78 638.093 176.78 637.8 176.78C626.067 176.78 618 179.64 613.6 185.36C609.2 191.08 607 199.293 607 210V254H574.44V155H605.68Z" fill="white"/>
<path d="M807.221 167.32C818.074 157.64 832.814 152.8 851.441 152.8C859.947 152.8 867.867 153.973 875.201 156.32C882.681 158.52 889.427 161.967 895.441 166.66C901.454 171.207 905.781 177.073 908.421 184.26C911.061 191.3 912.381 198.56 912.381 206.04C912.381 208.533 912.234 211.173 911.941 213.96H822.181C823.501 219.387 826.874 223.787 832.301 227.16C837.874 230.533 844.474 232.22 852.101 232.22C856.354 232.22 860.167 231.927 863.541 231.34C866.914 230.753 869.481 230.093 871.241 229.36C873.001 228.48 874.394 227.673 875.421 226.94C876.594 226.06 877.327 225.327 877.621 224.74L878.061 223.86H910.621C910.474 224.74 910.107 225.913 909.521 227.38C908.934 228.847 907.321 231.413 904.681 235.08C902.041 238.747 898.741 242.047 894.781 244.98C890.967 247.767 885.247 250.333 877.621 252.68C870.141 255.027 861.561 256.2 851.881 256.2C833.841 256.2 819.174 251.507 807.881 242.12C796.587 232.733 790.941 220.267 790.941 204.72C790.941 189.467 796.367 177 807.221 167.32ZM881.581 193.28C881.287 188.147 878.354 184.113 872.781 181.18C867.207 178.247 860.167 176.78 851.661 176.78C843.887 176.78 837.361 178.32 832.081 181.4C826.947 184.48 823.721 188.44 822.401 193.28H881.581Z" fill="white"/>
<path d="M923.142 112.54H955.262V219.9C955.262 222.833 955.775 224.887 956.802 226.06C957.975 227.233 960.102 227.82 963.182 227.82H974.842V254H963.182C947.635 254 937.075 251.8 931.502 247.4C925.928 243 923.142 233.833 923.142 219.9V112.54Z" fill="white"/>
<path d="M1019.8 155V254H987.457V155H1019.8ZM984.817 127.94C984.817 122.66 986.651 118.187 990.317 114.52C993.984 110.707 998.384 108.8 1003.52 108.8C1008.8 108.8 1013.27 110.707 1016.94 114.52C1020.6 118.187 1022.44 122.66 1022.44 127.94C1022.44 133.073 1020.6 137.473 1016.94 141.14C1013.27 144.807 1008.8 146.64 1003.52 146.64C998.384 146.64 993.984 144.807 990.317 141.14C986.651 137.473 984.817 133.073 984.817 127.94Z" fill="white"/>
<path d="M1032.19 226.06C1032.63 204.5 1060.28 192.62 1115.13 190.42H1118.21L1121.51 190.2V189.1C1121.51 179.86 1112.64 175.24 1094.89 175.24C1090.64 175.24 1086.83 175.607 1083.45 176.34C1080.23 176.927 1077.81 177.733 1076.19 178.76C1074.58 179.64 1073.26 180.593 1072.23 181.62C1071.35 182.5 1070.77 183.307 1070.47 184.04L1070.25 184.92H1037.91L1039.45 179.2C1044.29 167.173 1055.15 159.18 1072.01 155.22C1078.91 153.607 1086.61 152.8 1095.11 152.8C1113.74 152.8 1128.11 156.1 1138.23 162.7C1148.35 169.3 1153.41 178.173 1153.41 189.32L1153.63 215.72V220.56C1153.63 223.347 1154.07 225.253 1154.95 226.28C1155.83 227.307 1157.3 227.82 1159.35 227.82H1162.21V254H1159.35C1148.79 254 1140.8 252.973 1135.37 250.92C1130.09 248.867 1126.43 245.2 1124.37 239.92C1114.25 250.773 1098.05 256.2 1075.75 256.2C1060.5 256.2 1049.43 253.413 1042.53 247.84C1035.64 242.267 1032.19 235.153 1032.19 226.5C1032.19 226.353 1032.19 226.207 1032.19 226.06ZM1066.29 226.06C1066.29 231.047 1071.35 233.687 1081.47 233.98C1082.06 233.98 1082.72 233.98 1083.45 233.98C1091.96 233.98 1100.39 232.073 1108.75 228.26C1117.11 224.447 1121.37 219.167 1121.51 212.42V208.68C1115.21 208.827 1109.41 209.193 1104.13 209.78C1098.85 210.22 1092.99 211.027 1086.53 212.2C1080.23 213.373 1075.24 215.133 1071.57 217.48C1068.05 219.68 1066.29 222.393 1066.29 225.62C1066.29 225.767 1066.29 225.913 1066.29 226.06Z" fill="white"/>
</svg>
