<svg width="1600" height="400" viewBox="0 0 1600 400" fill="none" xmlns="http://www.w3.org/2000/svg">
<g clip-path="url(#clip0_1251_899)">
<rect width="1600" height="400" fill="white"/>
<rect width="200" height="200" transform="matrix(0 -1 -1 0 400.001 400)" fill="#1E1E1E"/>
<path d="M300.001 225C341.422 225 375.001 258.579 375.001 300C375.001 341.421 341.422 375 300.001 375" stroke="white" stroke-width="4"/>
<circle r="50" transform="matrix(0 -1 -1 0 300.001 300)" fill="white"/>
<path d="M300.001 350C272.387 350 250.001 327.614 250.001 300H350.001C350.001 327.614 327.615 350 300.001 350Z" fill="#DDDDDC"/>
<rect width="200" height="200" transform="matrix(1 0 0 -1 200 200)" fill="#1E1E1E"/>
<path d="M375 100C375 141.421 341.421 175 300 175C258.579 175 225 141.421 225 100" stroke="white" stroke-width="4"/>
<circle r="50" transform="matrix(1 0 0 -1 300 100)" fill="#7C7C7C"/>
<path d="M350 100C350 72.3858 327.614 50 300 50V150C327.614 150 350 127.614 350 100Z" fill="#DDDDDC"/>
<path d="M300 64.6447L264.645 100L300 135.355V64.6447Z" fill="#1E1E1E"/>
<rect width="200" height="200" transform="matrix(1 0 0 -1 0 200)" fill="#7C7C7C"/>
<path d="M175 100C175 141.421 141.421 175 100 175C58.5786 175 25 141.421 25 100" stroke="white" stroke-width="4"/>
<circle r="50" transform="matrix(1 0 0 -1 100 100)" fill="#7C7C7C"/>
<path d="M125 100C125 113.807 113.807 125 100 125C86.1929 125 75 113.807 75 100" stroke="#1E1E1E" stroke-width="4"/>
<rect y="200" width="200" height="200" fill="white"/>
<path d="M175 300C175 258.579 141.421 225 100 225C58.5786 225 25 258.579 25 300" stroke="#1E1E1E" stroke-width="4"/>
<circle cx="100" cy="300" r="50" fill="#FF3D00"/>
<circle cx="100" cy="300" r="25" fill="#1E1E1E"/>
<rect x="1600" width="200" height="200" transform="rotate(90 1600 0)" fill="white"/>
<rect x="1600" width="100" height="200" transform="rotate(90 1600 0)" fill="#FF3D00"/>
<rect x="1600" width="100" height="200" transform="rotate(90 1600 0)" fill="#FF3D00"/>
<rect width="200" height="200" transform="matrix(0 1 1 0 1200 0)" fill="#B7B7B7"/>
<path d="M1200 0C1200 26.2644 1205.17 52.2716 1215.22 76.5367C1225.28 100.802 1240.01 122.85 1258.58 141.421C1277.15 159.993 1299.2 174.725 1323.46 184.776C1347.73 194.827 1373.74 200 1400 200L1400 0L1200 0Z" fill="#565656"/>
<rect x="1400" y="400" width="200" height="200" transform="rotate(-90 1400 400)" fill="#B7B7B7"/>
<path d="M1400 400C1400 373.736 1405.17 347.728 1415.22 323.463C1425.28 299.198 1440.01 277.15 1458.58 258.579C1477.15 240.007 1499.2 225.275 1523.46 215.224C1547.73 205.173 1573.74 200 1600 200L1600 400H1400Z" fill="#565656"/>
<rect width="200" height="200" transform="matrix(0 -1 -1 0 1400 400)" fill="#B7B7B7"/>
<circle cx="1384" cy="384" r="3" transform="rotate(-180 1384 384)" fill="#1E1E1E"/>
<circle cx="1363" cy="384" r="3" transform="rotate(-180 1363 384)" fill="#1E1E1E"/>
<circle cx="1342" cy="384" r="3" transform="rotate(-180 1342 384)" fill="#1E1E1E"/>
<circle cx="1321" cy="384" r="3" transform="rotate(-180 1321 384)" fill="#1E1E1E"/>
<circle cx="1300" cy="384" r="3" transform="rotate(-180 1300 384)" fill="#1E1E1E"/>
<circle cx="1279" cy="384" r="3" transform="rotate(-180 1279 384)" fill="#1E1E1E"/>
<circle cx="1258" cy="384" r="3" transform="rotate(-180 1258 384)" fill="#1E1E1E"/>
<circle cx="1237" cy="384" r="3" transform="rotate(-180 1237 384)" fill="#1E1E1E"/>
<circle cx="1216" cy="384" r="3" transform="rotate(-180 1216 384)" fill="#1E1E1E"/>
<circle cx="1384" cy="363" r="3" transform="rotate(-180 1384 363)" fill="#1E1E1E"/>
<circle cx="1363" cy="363" r="3" transform="rotate(-180 1363 363)" fill="#1E1E1E"/>
<circle cx="1342" cy="363" r="3" transform="rotate(-180 1342 363)" fill="#1E1E1E"/>
<circle cx="1321" cy="363" r="3" transform="rotate(-180 1321 363)" fill="#1E1E1E"/>
<circle cx="1300" cy="363" r="3" transform="rotate(-180 1300 363)" fill="#1E1E1E"/>
<circle cx="1279" cy="363" r="3" transform="rotate(-180 1279 363)" fill="#1E1E1E"/>
<circle cx="1258" cy="363" r="3" transform="rotate(-180 1258 363)" fill="#1E1E1E"/>
<circle cx="1237" cy="363" r="3" transform="rotate(-180 1237 363)" fill="#1E1E1E"/>
<circle cx="1216" cy="363" r="3" transform="rotate(-180 1216 363)" fill="#1E1E1E"/>
<circle cx="1384" cy="342" r="3" transform="rotate(-180 1384 342)" fill="#1E1E1E"/>
<circle cx="1363" cy="342" r="3" transform="rotate(-180 1363 342)" fill="#1E1E1E"/>
<circle cx="1342" cy="342" r="3" transform="rotate(-180 1342 342)" fill="#1E1E1E"/>
<circle cx="1321" cy="342" r="3" transform="rotate(-180 1321 342)" fill="#1E1E1E"/>
<circle cx="1300" cy="342" r="3" transform="rotate(-180 1300 342)" fill="#1E1E1E"/>
<circle cx="1279" cy="342" r="3" transform="rotate(-180 1279 342)" fill="#1E1E1E"/>
<circle cx="1258" cy="342" r="3" transform="rotate(-180 1258 342)" fill="#1E1E1E"/>
<circle cx="1237" cy="342" r="3" transform="rotate(-180 1237 342)" fill="#1E1E1E"/>
<circle cx="1216" cy="342" r="3" transform="rotate(-180 1216 342)" fill="#1E1E1E"/>
<circle cx="1384" cy="321" r="3" transform="rotate(-180 1384 321)" fill="#1E1E1E"/>
<circle cx="1363" cy="321" r="3" transform="rotate(-180 1363 321)" fill="#1E1E1E"/>
<circle cx="1342" cy="321" r="3" transform="rotate(-180 1342 321)" fill="#1E1E1E"/>
<circle cx="1321" cy="321" r="3" transform="rotate(-180 1321 321)" fill="#1E1E1E"/>
<circle cx="1300" cy="321" r="3" transform="rotate(-180 1300 321)" fill="#1E1E1E"/>
<circle cx="1279" cy="321" r="3" transform="rotate(-180 1279 321)" fill="#1E1E1E"/>
<circle cx="1258" cy="321" r="3" transform="rotate(-180 1258 321)" fill="#1E1E1E"/>
<circle cx="1237" cy="321" r="3" transform="rotate(-180 1237 321)" fill="#1E1E1E"/>
<circle cx="1216" cy="321" r="3" transform="rotate(-180 1216 321)" fill="#1E1E1E"/>
<circle cx="1384" cy="300" r="3" transform="rotate(-180 1384 300)" fill="#1E1E1E"/>
<circle cx="1363" cy="300" r="3" transform="rotate(-180 1363 300)" fill="#1E1E1E"/>
<circle cx="1342" cy="300" r="3" transform="rotate(-180 1342 300)" fill="#1E1E1E"/>
<circle cx="1321" cy="300" r="3" transform="rotate(-180 1321 300)" fill="#1E1E1E"/>
<circle cx="1300" cy="300" r="3" transform="rotate(-180 1300 300)" fill="#1E1E1E"/>
<circle cx="1279" cy="300" r="3" transform="rotate(-180 1279 300)" fill="#1E1E1E"/>
<circle cx="1258" cy="300" r="3" transform="rotate(-180 1258 300)" fill="#1E1E1E"/>
<circle cx="1237" cy="300" r="3" transform="rotate(-180 1237 300)" fill="#1E1E1E"/>
<circle cx="1216" cy="300" r="3" transform="rotate(-180 1216 300)" fill="#1E1E1E"/>
<circle cx="1384" cy="279" r="3" transform="rotate(-180 1384 279)" fill="#1E1E1E"/>
<circle cx="1363" cy="279" r="3" transform="rotate(-180 1363 279)" fill="#1E1E1E"/>
<circle cx="1342" cy="279" r="3" transform="rotate(-180 1342 279)" fill="#1E1E1E"/>
<circle cx="1321" cy="279" r="3" transform="rotate(-180 1321 279)" fill="#1E1E1E"/>
<circle cx="1300" cy="279" r="3" transform="rotate(-180 1300 279)" fill="#1E1E1E"/>
<circle cx="1279" cy="279" r="3" transform="rotate(-180 1279 279)" fill="#1E1E1E"/>
<circle cx="1258" cy="279" r="3" transform="rotate(-180 1258 279)" fill="#1E1E1E"/>
<circle cx="1237" cy="279" r="3" transform="rotate(-180 1237 279)" fill="#1E1E1E"/>
<circle cx="1216" cy="279" r="3" transform="rotate(-180 1216 279)" fill="#1E1E1E"/>
<circle cx="1384" cy="258" r="3" transform="rotate(-180 1384 258)" fill="#1E1E1E"/>
<circle cx="1363" cy="258" r="3" transform="rotate(-180 1363 258)" fill="#1E1E1E"/>
<circle cx="1342" cy="258" r="3" transform="rotate(-180 1342 258)" fill="#1E1E1E"/>
<circle cx="1321" cy="258" r="3" transform="rotate(-180 1321 258)" fill="#1E1E1E"/>
<circle cx="1300" cy="258" r="3" transform="rotate(-180 1300 258)" fill="#1E1E1E"/>
<circle cx="1279" cy="258" r="3" transform="rotate(-180 1279 258)" fill="#1E1E1E"/>
<circle cx="1258" cy="258" r="3" transform="rotate(-180 1258 258)" fill="#1E1E1E"/>
<circle cx="1237" cy="258" r="3" transform="rotate(-180 1237 258)" fill="#1E1E1E"/>
<circle cx="1216" cy="258" r="3" transform="rotate(-180 1216 258)" fill="#1E1E1E"/>
<circle cx="1384" cy="237" r="3" transform="rotate(-180 1384 237)" fill="#1E1E1E"/>
<circle cx="1363" cy="237" r="3" transform="rotate(-180 1363 237)" fill="#1E1E1E"/>
<circle cx="1342" cy="237" r="3" transform="rotate(-180 1342 237)" fill="#1E1E1E"/>
<circle cx="1321" cy="237" r="3" transform="rotate(-180 1321 237)" fill="#1E1E1E"/>
<circle cx="1300" cy="237" r="3" transform="rotate(-180 1300 237)" fill="#1E1E1E"/>
<circle cx="1279" cy="237" r="3" transform="rotate(-180 1279 237)" fill="#1E1E1E"/>
<circle cx="1258" cy="237" r="3" transform="rotate(-180 1258 237)" fill="#1E1E1E"/>
<circle cx="1237" cy="237" r="3" transform="rotate(-180 1237 237)" fill="#1E1E1E"/>
<circle cx="1216" cy="237" r="3" transform="rotate(-180 1216 237)" fill="#1E1E1E"/>
<circle cx="1384" cy="216" r="3" transform="rotate(-180 1384 216)" fill="#1E1E1E"/>
<circle cx="1363" cy="216" r="3" transform="rotate(-180 1363 216)" fill="#1E1E1E"/>
<circle cx="1342" cy="216" r="3" transform="rotate(-180 1342 216)" fill="#1E1E1E"/>
<circle cx="1321" cy="216" r="3" transform="rotate(-180 1321 216)" fill="#1E1E1E"/>
<circle cx="1300" cy="216" r="3" transform="rotate(-180 1300 216)" fill="#1E1E1E"/>
<circle cx="1279" cy="216" r="3" transform="rotate(-180 1279 216)" fill="#1E1E1E"/>
<circle cx="1258" cy="216" r="3" transform="rotate(-180 1258 216)" fill="#1E1E1E"/>
<circle cx="1237" cy="216" r="3" transform="rotate(-180 1237 216)" fill="#1E1E1E"/>
<circle cx="1216" cy="216" r="3" transform="rotate(-180 1216 216)" fill="#1E1E1E"/>
<rect width="200" height="200" transform="matrix(-1 0 0 1 1000 0)" fill="#737373"/>
<path d="M1000 0C1000 26.2644 994.827 52.2716 984.776 76.5367C974.725 100.802 959.993 122.85 941.421 141.421C922.85 159.993 900.802 174.725 876.537 184.776C852.272 194.827 826.264 200 800 200L800 0H1000Z" fill="#FF3D00"/>
<rect x="1200" y="200" width="200" height="200" transform="rotate(180 1200 200)" fill="#737373"/>
<rect x="1200" y="200" width="200" height="100" transform="rotate(180 1200 200)" fill="#1D1F22"/>
<path d="M1100 0C1044.77 0 1000 44.7715 1000 100L1200 100C1200 44.7715 1155.23 0 1100 0Z" fill="#1D1F22"/>
<rect width="200" height="200" transform="matrix(-1 0 0 1 1000 200)" fill="#1D1F22"/>
<rect width="200" height="100" transform="matrix(-1 0 0 1 1000 200)" fill="#737373"/>
<path d="M900 400C844.772 400 800 355.228 800 300H1000C1000 355.228 955.228 400 900 400Z" fill="#737373"/>
<rect x="1200" y="400" width="200" height="200" transform="rotate(180 1200 400)" fill="#1D1F22"/>
<path d="M1100 300C1044.77 300 1000 344.772 1000 400H1200C1200 344.772 1155.23 300 1100 300Z" fill="#DDDDDC"/>
<rect x="400" y="200" width="200" height="200" transform="rotate(-90 400 200)" fill="#7B7B7B"/>
<path d="M400 100C455.228 100 500 55.2285 500 0H400V100Z" fill="#4F4F4F"/>
<path d="M600 100C544.772 100 500 55.2285 500 0H600V100Z" fill="#9E9E9E"/>
<path d="M400 100C455.228 100 500 144.772 500 200H400V100Z" fill="#4F4F4F"/>
<path d="M600 100C544.772 100 500 144.772 500 200H600V100Z" fill="#9E9E9E"/>
<rect width="200" height="200" transform="matrix(0 -1 -1 0 800 200)" fill="#7B7B7B"/>
<path d="M800 0C800 26.2644 794.827 52.2716 784.776 76.5367C774.725 100.802 759.993 122.85 741.421 141.421C722.85 159.993 700.802 174.725 676.537 184.776C652.272 194.827 626.264 200 600 200L600 0H800Z" fill="#1E1E1E"/>
<path d="M700 0C700 13.1322 697.413 26.1358 692.388 38.2683C687.362 50.4009 679.997 61.4248 670.711 70.7107C661.425 79.9965 650.401 87.3625 638.268 92.388C626.136 97.4134 613.132 100 600 100L600 0H700Z" fill="#9E9E9E"/>
<rect width="200" height="200" transform="matrix(-1 0 0 1 600 200)" fill="#7B7B7B"/>
<path d="M600 300C600 355.228 555.228 400 500 400V200C555.228 200 600 244.772 600 300Z" fill="#4F4F4F"/>
<path d="M400 300C400 355.228 444.772 400 500 400L500 200C444.772 200 400 244.772 400 300Z" fill="#FF3D00"/>
<rect width="200" height="200" transform="matrix(0 -1 -1 0 800 400)" fill="#7B7B7B"/>
<path d="M600 400V375L625 400H600Z" fill="#1E1E1E"/>
<path d="M625 400V375L650 400H625Z" fill="#1E1E1E"/>
<path d="M650 400V375L675 400H650Z" fill="#1E1E1E"/>
<path d="M675 400V375L700 400H675Z" fill="#1E1E1E"/>
<path d="M700 400V375L725 400H700Z" fill="#1E1E1E"/>
<path d="M725 400V375L750 400H725Z" fill="#1E1E1E"/>
<path d="M750 400V375L775 400H750Z" fill="#1E1E1E"/>
<path d="M775 400V375L800 400H775Z" fill="#1E1E1E"/>
<path d="M600 375V350L625 375H600Z" fill="#1E1E1E"/>
<path d="M625 375V350L650 375H625Z" fill="#1E1E1E"/>
<path d="M650 375V350L675 375H650Z" fill="#1E1E1E"/>
<path d="M675 375V350L700 375H675Z" fill="#1E1E1E"/>
<path d="M700 375V350L725 375H700Z" fill="#1E1E1E"/>
<path d="M725 375V350L750 375H725Z" fill="#1E1E1E"/>
<path d="M750 375V350L775 375H750Z" fill="#1E1E1E"/>
<path d="M775 375V350L800 375H775Z" fill="#1E1E1E"/>
<path d="M600 350V325L625 350H600Z" fill="#1E1E1E"/>
<path d="M625 350V325L650 350H625Z" fill="#1E1E1E"/>
<path d="M650 350V325L675 350H650Z" fill="#1E1E1E"/>
<path d="M675 350V325L700 350H675Z" fill="#1E1E1E"/>
<path d="M700 350V325L725 350H700Z" fill="#1E1E1E"/>
<path d="M725 350V325L750 350H725Z" fill="#1E1E1E"/>
<path d="M750 350V325L775 350H750Z" fill="#1E1E1E"/>
<path d="M775 350V325L800 350H775Z" fill="#1E1E1E"/>
<path d="M600 325V300L625 325H600Z" fill="#1E1E1E"/>
<path d="M625 325V300L650 325H625Z" fill="#1E1E1E"/>
<path d="M650 325V300L675 325H650Z" fill="#1E1E1E"/>
<path d="M675 325V300L700 325H675Z" fill="#1E1E1E"/>
<path d="M700 325V300L725 325H700Z" fill="#1E1E1E"/>
<path d="M725 325V300L750 325H725Z" fill="#1E1E1E"/>
<path d="M750 325V300L775 325H750Z" fill="#1E1E1E"/>
<path d="M775 325V300L800 325H775Z" fill="#1E1E1E"/>
<path d="M600 300V275L625 300H600Z" fill="#1E1E1E"/>
<path d="M625 300V275L650 300H625Z" fill="#1E1E1E"/>
<path d="M650 300V275L675 300H650Z" fill="#1E1E1E"/>
<path d="M675 300V275L700 300H675Z" fill="#1E1E1E"/>
<path d="M700 300V275L725 300H700Z" fill="#1E1E1E"/>
<path d="M725 300V275L750 300H725Z" fill="#1E1E1E"/>
<path d="M750 300V275L775 300H750Z" fill="#1E1E1E"/>
<path d="M775 300V275L800 300H775Z" fill="#1E1E1E"/>
<path d="M600 275V250L625 275H600Z" fill="#1E1E1E"/>
<path d="M625 275V250L650 275H625Z" fill="#1E1E1E"/>
<path d="M650 275V250L675 275H650Z" fill="#1E1E1E"/>
<path d="M675 275V250L700 275H675Z" fill="#1E1E1E"/>
<path d="M700 275V250L725 275H700Z" fill="#1E1E1E"/>
<path d="M725 275V250L750 275H725Z" fill="#1E1E1E"/>
<path d="M750 275V250L775 275H750Z" fill="#1E1E1E"/>
<path d="M775 275V250L800 275H775Z" fill="#1E1E1E"/>
<path d="M600 250V225L625 250H600Z" fill="#1E1E1E"/>
<path d="M625 250V225L650 250H625Z" fill="#1E1E1E"/>
<path d="M650 250V225L675 250H650Z" fill="#1E1E1E"/>
<path d="M675 250V225L700 250H675Z" fill="#1E1E1E"/>
<path d="M700 250V225L725 250H700Z" fill="#1E1E1E"/>
<path d="M725 250V225L750 250H725Z" fill="#1E1E1E"/>
<path d="M750 250V225L775 250H750Z" fill="#1E1E1E"/>
<path d="M775 250V225L800 250H775Z" fill="#1E1E1E"/>
<path d="M600 225V200L625 225H600Z" fill="#1E1E1E"/>
<path d="M625 225V200L650 225H625Z" fill="#1E1E1E"/>
<path d="M650 225V200L675 225H650Z" fill="#1E1E1E"/>
<path d="M675 225V200L700 225H675Z" fill="#1E1E1E"/>
<path d="M700 225V200L725 225H700Z" fill="#1E1E1E"/>
<path d="M725 225V200L750 225H725Z" fill="#1E1E1E"/>
<path d="M750 225V200L775 225H750Z" fill="#1E1E1E"/>
<path d="M775 225V200L800 225H775Z" fill="#1E1E1E"/>
<path d="M433.64 226.06C434.08 204.5 461.727 192.62 516.58 190.42H519.66L522.96 190.2V189.1C522.96 179.86 514.087 175.24 496.34 175.24C492.087 175.24 488.273 175.607 484.9 176.34C481.673 176.927 479.253 177.733 477.64 178.76C476.027 179.64 474.707 180.593 473.68 181.62C472.8 182.5 472.213 183.307 471.92 184.04L471.7 184.92H439.36L440.9 179.2C445.74 167.173 456.593 159.18 473.46 155.22C480.353 153.607 488.053 152.8 496.56 152.8C515.187 152.8 529.56 156.1 539.68 162.7C549.8 169.3 554.86 178.173 554.86 189.32L555.08 215.72V220.56C555.08 223.347 555.52 225.253 556.4 226.28C557.28 227.307 558.747 227.82 560.8 227.82H563.66V254H560.8C550.24 254 542.247 252.973 536.82 250.92C531.54 248.867 527.873 245.2 525.82 239.92C515.7 250.773 499.493 256.2 477.2 256.2C461.947 256.2 450.873 253.413 443.98 247.84C437.087 242.267 433.64 235.153 433.64 226.5C433.64 226.353 433.64 226.207 433.64 226.06ZM467.74 226.06C467.74 231.047 472.8 233.687 482.92 233.98C483.507 233.98 484.167 233.98 484.9 233.98C493.407 233.98 501.84 232.073 510.2 228.26C518.56 224.447 522.813 219.167 522.96 212.42V208.68C516.653 208.827 510.86 209.193 505.58 209.78C500.3 210.22 494.433 211.027 487.98 212.2C481.673 213.373 476.687 215.133 473.02 217.48C469.5 219.68 467.74 222.393 467.74 225.62C467.74 225.767 467.74 225.913 467.74 226.06ZM605.68 155V169.96C613.747 158.667 626.14 152.947 642.86 152.8C643.593 152.8 644.327 152.8 645.06 152.8C667.06 152.8 681.653 159.547 688.84 173.04C697.933 159.987 711.867 153.24 730.64 152.8C731.227 152.8 731.813 152.8 732.4 152.8C741.787 152.8 749.853 153.973 756.6 156.32C763.493 158.52 768.773 162.04 772.44 166.88C776.107 171.573 778.673 176.707 780.14 182.28C781.753 187.853 782.56 194.38 782.56 201.86V254H749.78V201.86C749.78 194.233 747.727 188.147 743.62 183.6C739.66 179.053 733.867 176.78 726.24 176.78C725.947 176.78 725.653 176.78 725.36 176.78C713.773 176.78 705.78 179.64 701.38 185.36C696.98 191.08 694.78 199.293 694.78 210V254H662.22V201.86C662.22 194.233 660.167 188.147 656.06 183.6C651.953 179.053 646.16 176.78 638.68 176.78C638.387 176.78 638.093 176.78 637.8 176.78C626.067 176.78 618 179.64 613.6 185.36C609.2 191.08 607 199.293 607 210V254H574.44V155H605.68ZM807.221 167.32C818.074 157.64 832.814 152.8 851.441 152.8C859.947 152.8 867.867 153.973 875.201 156.32C882.681 158.52 889.427 161.967 895.441 166.66C901.454 171.207 905.781 177.073 908.421 184.26C911.061 191.3 912.381 198.56 912.381 206.04C912.381 208.533 912.234 211.173 911.941 213.96H822.181C823.501 219.387 826.874 223.787 832.301 227.16C837.874 230.533 844.474 232.22 852.101 232.22C856.354 232.22 860.167 231.927 863.541 231.34C866.914 230.753 869.481 230.093 871.241 229.36C873.001 228.48 874.394 227.673 875.421 226.94C876.594 226.06 877.327 225.327 877.621 224.74L878.061 223.86H910.621C910.474 224.74 910.107 225.913 909.521 227.38C908.934 228.847 907.321 231.413 904.681 235.08C902.041 238.747 898.741 242.047 894.781 244.98C890.967 247.767 885.247 250.333 877.621 252.68C870.141 255.027 861.561 256.2 851.881 256.2C833.841 256.2 819.174 251.507 807.881 242.12C796.587 232.733 790.941 220.267 790.941 204.72C790.941 189.467 796.367 177 807.221 167.32ZM881.581 193.28C881.287 188.147 878.354 184.113 872.781 181.18C867.207 178.247 860.167 176.78 851.661 176.78C843.887 176.78 837.361 178.32 832.081 181.4C826.947 184.48 823.721 188.44 822.401 193.28H881.581ZM923.142 112.54H955.262V219.9C955.262 222.833 955.775 224.887 956.802 226.06C957.975 227.233 960.102 227.82 963.182 227.82H974.842V254H963.182C947.635 254 937.075 251.8 931.502 247.4C925.928 243 923.142 233.833 923.142 219.9V112.54ZM1019.8 155V254H987.457V155H1019.8ZM984.817 127.94C984.817 122.66 986.651 118.187 990.317 114.52C993.984 110.707 998.384 108.8 1003.52 108.8C1008.8 108.8 1013.27 110.707 1016.94 114.52C1020.6 118.187 1022.44 122.66 1022.44 127.94C1022.44 133.073 1020.6 137.473 1016.94 141.14C1013.27 144.807 1008.8 146.64 1003.52 146.64C998.384 146.64 993.984 144.807 990.317 141.14C986.651 137.473 984.817 133.073 984.817 127.94ZM1032.19 226.06C1032.63 204.5 1060.28 192.62 1115.13 190.42H1118.21L1121.51 190.2V189.1C1121.51 179.86 1112.64 175.24 1094.89 175.24C1090.64 175.24 1086.83 175.607 1083.45 176.34C1080.23 176.927 1077.81 177.733 1076.19 178.76C1074.58 179.64 1073.26 180.593 1072.23 181.62C1071.35 182.5 1070.77 183.307 1070.47 184.04L1070.25 184.92H1037.91L1039.45 179.2C1044.29 167.173 1055.15 159.18 1072.01 155.22C1078.91 153.607 1086.61 152.8 1095.11 152.8C1113.74 152.8 1128.11 156.1 1138.23 162.7C1148.35 169.3 1153.41 178.173 1153.41 189.32L1153.63 215.72V220.56C1153.63 223.347 1154.07 225.253 1154.95 226.28C1155.83 227.307 1157.3 227.82 1159.35 227.82H1162.21V254H1159.35C1148.79 254 1140.8 252.973 1135.37 250.92C1130.09 248.867 1126.43 245.2 1124.37 239.92C1114.25 250.773 1098.05 256.2 1075.75 256.2C1060.5 256.2 1049.43 253.413 1042.53 247.84C1035.64 242.267 1032.19 235.153 1032.19 226.5C1032.19 226.353 1032.19 226.207 1032.19 226.06ZM1066.29 226.06C1066.29 231.047 1071.35 233.687 1081.47 233.98C1082.06 233.98 1082.72 233.98 1083.45 233.98C1091.96 233.98 1100.39 232.073 1108.75 228.26C1117.11 224.447 1121.37 219.167 1121.51 212.42V208.68C1115.21 208.827 1109.41 209.193 1104.13 209.78C1098.85 210.22 1092.99 211.027 1086.53 212.2C1080.23 213.373 1075.24 215.133 1071.57 217.48C1068.05 219.68 1066.29 222.393 1066.29 225.62C1066.29 225.767 1066.29 225.913 1066.29 226.06Z" fill="white"/>
</g>
<defs>
<clipPath id="clip0_1251_899">
<rect width="1600" height="400" fill="white"/>
</clipPath>
</defs>
</svg>
